<svg xmlns="http://www.w3.org/2000/svg" viewBox="0 0 460 440" width="460" height="440">
  <defs>
    <style>
      @import url('https://fonts.googleapis.com/css2?family=Inter:wght@400;600&amp;display=swap');
      text { font-family: 'Inter', -apple-system, sans-serif; }
    </style>
    <linearGradient id="areaFill" x1="0%" y1="0%" x2="100%" y2="100%">
      <stop offset="0%" stop-color="#61dafb" stop-opacity="0.30"/>
      <stop offset="100%" stop-color="#ff6e40" stop-opacity="0.08"/>
    </linearGradient>
    <filter id="softGlow">
      <feGaussianBlur stdDeviation="2.5" result="blur"/>
      <feMerge><feMergeNode in="blur"/><feMergeNode in="SourceGraphic"/></feMerge>
    </filter>
    <radialGradient id="bgGrad" cx="50%" cy="50%" r="60%">
      <stop offset="0%" stop-color="#161b22"/>
      <stop offset="100%" stop-color="#0d1117"/>
    </radialGradient>
  </defs>

  <!-- Card background -->
  <rect width="460" height="440" rx="14" fill="url(#bgGrad)"/>
  <rect x="0.5" y="0.5" width="459" height="439" rx="14" fill="none" stroke="#21262d" stroke-width="1"/>

  <!-- Title -->
  <text x="230" y="32" text-anchor="middle" fill="#e6edf3" font-size="13" font-weight="600" letter-spacing="0.5">Most Used Languages</text>
  <line x1="170" y1="42" x2="290" y2="42" stroke="#21262d" stroke-width="1"/>

  <polygon points="230.0,189.0 252.5,202.0 252.5,228.0 230.0,241.0 207.5,228.0 207.5,202.0" fill="none" stroke="#30363d" stroke-width="0.8" stroke-dasharray="2,3"/>
  <polygon points="230.0,163.0 275.0,189.0 275.0,241.0 230.0,267.0 185.0,241.0 185.0,189.0" fill="none" stroke="#30363d" stroke-width="0.8" stroke-dasharray="2,3"/>
  <polygon points="230.0,137.0 297.5,176.0 297.5,254.0 230.0,293.0 162.5,254.0 162.5,176.0" fill="none" stroke="#30363d" stroke-width="0.8" stroke-dasharray="2,3"/>
  <polygon points="230.0,111.0 320.1,163.0 320.1,267.0 230.0,319.0 139.9,267.0 139.9,163.0" fill="none" stroke="#30363d" stroke-width="0.8" stroke-dasharray="2,3"/>
  <polygon points="230.0,85.0 342.6,150.0 342.6,280.0 230.0,345.0 117.4,280.0 117.4,150.0" fill="none" stroke="#3d444d" stroke-width="0.8" stroke-dasharray=""/>
  <line x1="230" y1="215" x2="230.0" y2="85.0" stroke="#21262d" stroke-width="0.8"/>
  <line x1="230" y1="215" x2="342.6" y2="150.0" stroke="#21262d" stroke-width="0.8"/>
  <line x1="230" y1="215" x2="342.6" y2="280.0" stroke="#21262d" stroke-width="0.8"/>
  <line x1="230" y1="215" x2="230.0" y2="345.0" stroke="#21262d" stroke-width="0.8"/>
  <line x1="230" y1="215" x2="117.4" y2="280.0" stroke="#21262d" stroke-width="0.8"/>
  <line x1="230" y1="215" x2="117.4" y2="150.0" stroke="#21262d" stroke-width="0.8"/>
  <polygon points="230.0,110.5 304.5,172.0 289.9,249.6 230.0,251.9 210.9,226.0 224.5,211.8" fill="url(#areaFill)" stroke="#61dafb" stroke-width="1.8" stroke-linejoin="round" filter="url(#softGlow)"/>
  <circle cx="230.0" cy="110.5" r="6" fill="#0d1117" stroke="#3178C6" stroke-width="2.5"/>
  <circle cx="230.0" cy="110.5" r="2.5" fill="#3178C6"/>
  <text x="230.0" y="58.0" text-anchor="middle" fill="#e6edf3" font-size="11" font-weight="600">TypeScript</text>
  <text x="230.0" y="72.0" text-anchor="middle" fill="#3178C6" font-size="10" font-weight="400">32.16%</text>
  <circle cx="304.5" cy="172.0" r="6" fill="#0d1117" stroke="#3776AB" stroke-width="2.5"/>
  <circle cx="304.5" cy="172.0" r="2.5" fill="#3776AB"/>
  <text x="370.6" y="133.0" text-anchor="start" fill="#e6edf3" font-size="11" font-weight="600">Python</text>
  <text x="370.6" y="147.0" text-anchor="start" fill="#3776AB" font-size="10" font-weight="400">26.46%</text>
  <circle cx="289.9" cy="249.6" r="6" fill="#0d1117" stroke="#F7DF1E" stroke-width="2.5"/>
  <circle cx="289.9" cy="249.6" r="2.5" fill="#F7DF1E"/>
  <text x="370.6" y="293.0" text-anchor="start" fill="#e6edf3" font-size="11" font-weight="600">JavaScript</text>
  <text x="370.6" y="307.0" text-anchor="start" fill="#F7DF1E" font-size="10" font-weight="400">21.28%</text>
  <circle cx="230.0" cy="251.9" r="6" fill="#0d1117" stroke="#1572B6" stroke-width="2.5"/>
  <circle cx="230.0" cy="251.9" r="2.5" fill="#1572B6"/>
  <text x="230.0" y="373.0" text-anchor="middle" fill="#e6edf3" font-size="11" font-weight="600">CSS</text>
  <text x="230.0" y="387.0" text-anchor="middle" fill="#1572B6" font-size="10" font-weight="400">11.36%</text>
  <circle cx="210.9" cy="226.0" r="6" fill="#0d1117" stroke="#ED8B00" stroke-width="2.5"/>
  <circle cx="210.9" cy="226.0" r="2.5" fill="#ED8B00"/>
  <text x="89.4" y="293.0" text-anchor="end" fill="#e6edf3" font-size="11" font-weight="600">Java</text>
  <text x="89.4" y="307.0" text-anchor="end" fill="#ED8B00" font-size="10" font-weight="400">6.78%</text>
  <circle cx="224.5" cy="211.8" r="6" fill="#0d1117" stroke="#CF649A" stroke-width="2.5"/>
  <circle cx="224.5" cy="211.8" r="2.5" fill="#CF649A"/>
  <text x="89.4" y="133.0" text-anchor="end" fill="#e6edf3" font-size="11" font-weight="600">SCSS</text>
  <text x="89.4" y="147.0" text-anchor="end" fill="#CF649A" font-size="10" font-weight="400">1.96%</text>
  <rect x="24" y="411" width="8" height="8" rx="2" fill="#3178C6"/>
  <text x="36" y="419" fill="#8b949e" font-size="8.5">TypeScript</text>
  <rect x="96" y="411" width="8" height="8" rx="2" fill="#3776AB"/>
  <text x="108" y="419" fill="#8b949e" font-size="8.5">Python</text>
  <rect x="168" y="411" width="8" height="8" rx="2" fill="#F7DF1E"/>
  <text x="180" y="419" fill="#8b949e" font-size="8.5">JavaScript</text>
  <rect x="240" y="411" width="8" height="8" rx="2" fill="#1572B6"/>
  <text x="252" y="419" fill="#8b949e" font-size="8.5">CSS</text>
  <rect x="312" y="411" width="8" height="8" rx="2" fill="#ED8B00"/>
  <text x="324" y="419" fill="#8b949e" font-size="8.5">Java</text>
  <rect x="384" y="411" width="8" height="8" rx="2" fill="#CF649A"/>
  <text x="396" y="419" fill="#8b949e" font-size="8.5">SCSS</text>
</svg>